<svg xmlns="http://www.w3.org/2000/svg" viewBox="0 0 520 120" role="img" aria-labelledby="t d"><title id="t">Alta Rental</title><desc id="d">Alta Rental logo with car and roadway emblem.</desc><defs><linearGradient id="t1" x1="0" x2="1"><stop stop-color="#064d58"/><stop offset="1" stop-color="#0f7481"/></linearGradient><linearGradient id="c" x1="0" x2="1"><stop stop-color="#1cc0d5"/><stop offset="1" stop-color="#0aa0bd"/></linearGradient><linearGradient id="s" x1="0" x2="1"><stop stop-color="#eef3f6"/><stop offset=".5" stop-color="#909ca4"/><stop offset="1" stop-color="#f7f8fa"/></linearGradient></defs><g transform="translate(4 10)"><path d="M16 49 C34 27 64 18 100 20 C124 21 147 27 170 39 C146 30 123 28 101 31 C74 35 51 45 29 60 Z" fill="url(#t1)"/><path d="M38 57 C68 44 99 39 129 41 C151 42 171 47 190 56 C164 52 143 51 120 53 C91 56 64 63 40 71 Z" fill="#fff"/><path d="M43 69 C76 58 111 55 147 58 C167 60 186 65 202 72 C181 69 162 69 143 72 C111 76 80 84 48 96 Z" fill="url(#c)"/><path d="M86 96 C120 78 153 69 198 69 C220 70 242 73 262 81 C233 78 211 81 190 87 C163 95 142 106 122 117 Z" fill="url(#t1)"/><path d="M197 83 C220 78 242 80 265 88 C246 89 228 93 211 100 C198 105 186 111 176 117 H146 C160 101 176 90 197 83 Z" fill="url(#s)"/><path d="M154 80 l14 -2 8 3 -13 3z M177 86 l13 -2 8 3 -12 3z M198 92 l12 -1 8 4 -12 2z" fill="#fff"/></g><g transform="translate(274 27)"><text x="0" y="34" font-family="Arial,Helvetica,sans-serif" font-size="33" font-weight="800" fill="#07535f">Alta Rental</text><text x="1" y="60" font-family="Arial,Helvetica,sans-serif" font-size="12.5" font-weight="700" letter-spacing="1.05" fill="#708086">DAILY • WEEKLY • EXTENDED RENTALS</text><rect x="0" y="72" width="222" height="4" rx="2" fill="#1cc0d5"/></g></svg>